<svg id="svgexport-7" xmlns="http://www.w3.org/2000/svg" width="38.083" height="31.736" viewBox="0 0 38.083 31.736">
  <path id="Path_12856" data-name="Path 12856" d="M19.108,9.141a1.587,1.587,0,0,1-1.587-1.587V5.174H11.174v2.38A1.587,1.587,0,1,1,8,7.554V5.174A3.177,3.177,0,0,1,11.174,2h6.347a3.177,3.177,0,0,1,3.174,3.174v2.38A1.587,1.587,0,0,1,19.108,9.141Z" transform="translate(4.694 -2)"/>
  <path id="Path_12857" data-name="Path 12857" d="M20.168,17.586a3.268,3.268,0,0,1-1.127.19,3.477,3.477,0,0,1-1.222-.222L0,11.62V23.727a4.361,4.361,0,0,0,4.364,4.364H33.72a4.361,4.361,0,0,0,4.364-4.364V11.62Z" transform="translate(0 3.645)"/>
  <path id="Path_12858" data-name="Path 12858" d="M38.083,9.364V13l-18.661,6.22a1.174,1.174,0,0,1-.762,0L0,13V9.364A4.361,4.361,0,0,1,4.364,5H33.72A4.361,4.361,0,0,1,38.083,9.364Z" transform="translate(0 -0.24)"/>
</svg>
