<svg xmlns="http://www.w3.org/2000/svg" xmlns:xlink="http://www.w3.org/1999/xlink" width="952.183" height="440.271" viewBox="0 0 952.183 440.271">
  <defs>
    <filter id="Path_12482" x="236.591" y="102.047" width="453.501" height="112.208" filterUnits="userSpaceOnUse">
      <feOffset input="SourceAlpha"/>
      <feGaussianBlur stdDeviation="5" result="blur"/>
      <feFlood flood-color="red" flood-opacity="0.388"/>
      <feComposite operator="in" in2="blur"/>
      <feComposite in="SourceGraphic"/>
    </filter>
    <filter id="Path_12484" x="0" y="0" width="952.183" height="436.512" filterUnits="userSpaceOnUse">
      <feOffset dy="3" input="SourceAlpha"/>
      <feGaussianBlur stdDeviation="3" result="blur-2"/>
      <feFlood flood-opacity="0.161"/>
      <feComposite operator="in" in2="blur-2"/>
      <feComposite in="SourceGraphic"/>
    </filter>
    <filter id="Path_12893" x="62.745" y="48.214" width="693.271" height="349.791" filterUnits="userSpaceOnUse">
      <feOffset input="SourceAlpha"/>
      <feGaussianBlur stdDeviation="10" result="blur-3"/>
      <feFlood flood-opacity="0.502"/>
      <feComposite operator="in" in2="blur-3"/>
      <feComposite in="SourceGraphic"/>
    </filter>
    <filter id="Path_12481" x="661.464" y="104.271" width="235.973" height="336" filterUnits="userSpaceOnUse">
      <feOffset input="SourceAlpha"/>
      <feGaussianBlur stdDeviation="10" result="blur-4"/>
      <feFlood flood-opacity="0.502"/>
      <feComposite operator="in" in2="blur-4"/>
      <feComposite in="SourceGraphic"/>
    </filter>
    <filter id="COM" x="400.591" y="253.743" width="242" height="175" filterUnits="userSpaceOnUse">
      <feOffset input="SourceAlpha"/>
      <feGaussianBlur stdDeviation="5" result="blur-5"/>
      <feFlood flood-opacity="0.439"/>
      <feComposite operator="in" in2="blur-5"/>
      <feComposite in="SourceGraphic"/>
    </filter>
  </defs>
  <g id="Group_4490" data-name="Group 4490" transform="translate(-153.409 -330.257)">
    <g transform="matrix(1, 0, 0, 1, 153.41, 330.26)" filter="url(#Path_12482)">
      <path id="Path_12482-2" data-name="Path 12482" d="M116.3-30.3q-6.5.119-13.115,16.56L79.354,45.826H75.78L58.506-4.509A161.946,161.946,0,0,0,49.091,14.97L36.936,45.826H33.479L13.4-13.384Q9.406-25.238,5.652-28.4A7.654,7.654,0,0,0,1.419-30.3v-2.921H22.165V-30.3q-2.206.06-2.206,1.965a3.915,3.915,0,0,0,.238,1.191L39.1,28.73,49.051,3.711A56.517,56.517,0,0,0,53.4-17.137q0-12.628-10.015-13.165v-2.921H64.551V-30.3q-2.563.06-2.563,1.906a4.031,4.031,0,0,0,.238,1.251L81.362,28.73l12.161-30.8q5.6-14.177,5.6-20.193,0-4.765-2.5-6.492Q94.6-30.182,89.47-30.3v-2.921H116.3ZM189.92,43.024H168.578V40.1h1.371q1.013,0,1.013-1.963a4.156,4.156,0,0,0-.238-1.308l-7.166-20.695H137.466q-4.12,11.536-4.12,17.186a6.442,6.442,0,0,0,1.967,4.936,7.113,7.113,0,0,0,5.067,1.843h3.16v2.921H116.833V40.1q6.742-.358,12.172-14.237l24.463-62.249h3.523L178.064,24.5a54.68,54.68,0,0,0,4.107,9.65q3.458,5.778,7.75,5.957ZM162.245,12.442,151.378-19.234,138.839,12.442Zm79.182,8.327q0,10.023-9.24,17.242a29.9,29.9,0,0,1-18.9,6.742A49.232,49.232,0,0,1,195.763,41V19.536h4.173A23.3,23.3,0,0,0,204.645,34q5.056,6.815,13.027,6.815a14.459,14.459,0,0,0,10.291-3.729,13.032,13.032,0,0,0,3.985-9.994q0-6.5-6.011-12.171a113.78,113.78,0,0,0-11.485-8.293A124.25,124.25,0,0,1,203.145-1.6a16.313,16.313,0,0,1-4.107-5.608,14.332,14.332,0,0,1-1.428-6.264q0-9.367,8.7-15.75A29.172,29.172,0,0,1,223.9-34.952q5.306,0,14.129,3.04v18.659h-4.292a21.366,21.366,0,0,0-4.292-12.1,13.15,13.15,0,0,0-11-5.6,11.93,11.93,0,0,0-8.265,2.984,10.531,10.531,0,0,0-3.389,8.054q0,6.085,6.9,12.291A128.931,128.931,0,0,0,225.6.961q8.213,5.489,10.712,8.054A16.32,16.32,0,0,1,241.427,20.769Zm60.688.317-4.888,24.561h-2.981q-.06-2.623-2.265-2.623H248.521V40.1q5.365-.06,7.213-2.053t1.848-7.409V-20.839q0-5.356-1.878-7.35T248.521-30.3v-2.921h42.565q3.875,0,3.994-2.981h2.861v22.773h-4.292Q293.409-30.3,273.119-30.3h-4.562a106.683,106.683,0,0,0-.72,11.625q0,19.852,16.752,19.852h5.842V5.288l-21.879.6V40.1h6.333q20.076,0,23.057-19.017Zm58.482,0-4.888,24.561h-2.981q-.06-2.623-2.265-2.623H307V40.1q5.365-.06,7.213-2.053t1.848-7.409V-20.839q0-5.356-1.878-7.35T307-30.3v-2.921h42.565q3.875,0,3.994-2.981h2.861v22.773h-4.292Q351.891-30.3,331.6-30.3h-4.562a106.691,106.691,0,0,0-.72,11.625q0,19.852,16.752,19.852h5.842V5.288l-21.878.6V40.1h6.333q20.076,0,23.057-19.017ZM424.92-13.252h-4.173q-.18-17.05-18.173-17.05h-3.228V30.684q0,9.182,9.061,9.419v2.921H379.315V40.1q5.306-.06,7.184-2.083t1.878-7.38V-30.3h-4.125q-16.56,0-17.1,17.05h-4.113V-35.905h2.683q.772,2.683,2.317,2.683h51.938q2.02,0,2.02-2.683h2.921Z" transform="translate(250.17 153.43)" fill="red"/>
    </g>
    <g transform="matrix(1, 0, 0, 1, 153.41, 330.26)" filter="url(#Path_12484)">
      <g id="Path_12484-2" data-name="Path 12484" transform="translate(9 6)" fill="none" stroke-linecap="round">
        <path d="M78.9,0H855.286c43.573,0,78.9,31.611,78.9,70.6v277.3c0,38.994-35.323,70.6-78.9,70.6H78.9c-43.573,0-78.9-31.611-78.9-70.6V70.6C0,31.611,35.323,0,78.9,0Z" stroke="none"/>
        <path d="M 78.89678955078125 49.99993896484375 C 61.867431640625 49.99993896484375 49.99993896484375 60.85894775390625 49.99993896484375 70.6046142578125 L 49.99993896484375 347.9069519042969 C 49.99993896484375 357.6526184082031 61.867431640625 368.5116271972656 78.89678955078125 368.5116271972656 L 855.2860717773438 368.5116271972656 C 872.3152465820312 368.5116271972656 884.1827392578125 357.6526184082031 884.1827392578125 347.9069519042969 L 884.1827392578125 70.6046142578125 C 884.1827392578125 60.85894775390625 872.3152465820312 49.99993896484375 855.2860717773438 49.99993896484375 L 78.89678955078125 49.99993896484375 M 78.89678955078125 -6.103515625e-05 L 855.2860717773438 -6.103515625e-05 C 898.8594360351562 -6.103515625e-05 934.1827392578125 31.61077880859375 934.1827392578125 70.6046142578125 L 934.1827392578125 347.9069519042969 C 934.1827392578125 386.9007873535156 898.8594360351562 418.5116271972656 855.2860717773438 418.5116271972656 L 78.89678955078125 418.5116271972656 C 35.3232421875 418.5116271972656 -6.103515625e-05 386.9007873535156 -6.103515625e-05 347.9069519042969 L -6.103515625e-05 70.6046142578125 C -6.103515625e-05 31.61077880859375 35.3232421875 -6.103515625e-05 78.89678955078125 -6.103515625e-05 Z" stroke="none" fill="red"/>
      </g>
    </g>
    <g transform="matrix(1, 0, 0, 1, 153.41, 330.26)" filter="url(#Path_12893)">
      <path id="Path_12893-2" data-name="Path 12893" d="M-374.3-207.966H-539.623a32.253,32.253,0,0,1-12.089-2.229,28.228,28.228,0,0,1-9.6-6.259,29.1,29.1,0,0,1-6.345-9.688,32.3,32.3,0,0,1-2.315-12.346q7.888,4.8,22.806,4.8h7.545V-348.231q0-10.974-19.72-45.784,11.66,0,37.724-30.179v150.9h95.34q5.144,0,10.631,11.146l13.546,28.465H-374.3Zm-59.7-25.721-7.2-13.889h-65.16l6.859,13.889Zm337.158,25.721H-299.213a50.162,50.162,0,0,1-3.858,4.544q-2.486,2.658-5.916,5.916l-26.578,25.035a38.014,38.014,0,0,0-4.716-10.8,76.434,76.434,0,0,0-8.574-11.66,65.061,65.061,0,0,0-10.031-9.26q-5.144-3.772-9.088-3.772h-12v-25.721h11.489q6.173,0,21.434,15.433l17.662,18.176a13.229,13.229,0,0,0,2.915-7.888q0-3.258-5.659-14.918l-7.545-15.261q-8.745-17.662-8.745-23.663,0-10.46,8.4-19.891l21.263-20.405a48.747,48.747,0,0,0-2.4,13.375q0,6.344,7.373,20.92l11.317,22.635q1.886,3.944,3.258,6.773t2.058,4.716H-96.836ZM-302.128-152.58q0,4.458-8.917,18.176a40.372,40.372,0,0,0-17.147-13.2q-7.545-3.087-7.545-8.231,0-4.115,20.062-20.405a12.078,12.078,0,0,0,2.4,6.259q2.229,3.172,4.63,6.173t4.458,5.83A9.289,9.289,0,0,1-302.128-152.58Zm-39.611,0q0,4.458-8.917,18.176a40.372,40.372,0,0,0-17.147-13.2q-7.545-3.087-7.545-8.231,0-4.115,20.062-20.405a12.079,12.079,0,0,0,2.4,6.259q2.229,3.172,4.63,6.173t4.458,5.83A9.289,9.289,0,0,1-341.739-152.58ZM63.3-215.339a27.092,27.092,0,0,1-19.205,7.373h-146.61v-25.721h24.006l-1.372-2.915q-3.087-6.516-10.974-10.288l22.463-22.292,17.662,35.5h19.205l-8.917-17.662a24.063,24.063,0,0,0-10.974-10.288l22.463-22.292,24.864,50.242H15.113L-1.349-266.438a24.063,24.063,0,0,0-10.974-10.288L10.14-299.018l33.094,67.046a63.817,63.817,0,0,0,4.8,8.745,21.619,21.619,0,0,0,4.458,4.973,12.462,12.462,0,0,0,4.8,2.315A26.622,26.622,0,0,0,63.3-215.339Z" transform="translate(662.72 502.41)" fill="#fff"/>
    </g>
    <g transform="matrix(1, 0, 0, 1, 153.41, 330.26)" filter="url(#Path_12481)">
      <path id="Path_12481-2" data-name="Path 12481" d="M351.087,65.362c0,10.65-5.934,28.926-17.8,40.828L242.9,197.1c-14,14.1-31.878,25.107-53.636,25.107a39.553,39.553,0,0,1-14.151-2.349q5.021-1.409,14.379-4.463c11.869-5.168,24.726-18.608,38.573-32.389l39.714-39.466q9.129-9.162,9.13-14.1t-10.5-15.5l-33.7-36.177q-7.76-7.987-8.9-9.632-3.424-5.4-3.424-14.33,0-10.336,12.774-23.492l79.752-84.1a60.123,60.123,0,0,0-2,15.5q0,11.276,12.1,36.177L338.077,28.9C346.75,46.756,351.087,54.243,351.087,65.362ZM319.133,83.638q0-6.108-4.565-15.035L295.4,31.251q-3.2-6.343-3.2-10.1a68.5,68.5,0,0,1,.457-9.867Q276.68,25.143,276.68,34.305q0,6.578,5.478,16.914l16.89,31.949q5.25,9.867,5.934,15.035a20.281,20.281,0,0,1,0,6.108Q319.133,91.39,319.133,83.638Z" transform="translate(516.35 188.06)" fill="#fff"/>
    </g>
    <g transform="matrix(1, 0, 0, 1, 153.41, 330.26)" filter="url(#COM)">
      <text id="COM-2" data-name="COM" transform="translate(627.59 373.74)" fill="#029502" font-size="95" font-family="Andalus"><tspan x="-211.755" y="0">COM</tspan></text>
    </g>
  </g>
</svg>
