<svg xmlns="http://www.w3.org/2000/svg" width="46.757" height="35.068" viewBox="0 0 46.757 35.068">
  <path id="svgexport-32" d="M45.664,74.228H40.2l-1.52-3.8A10.176,10.176,0,0,0,29.181,64h-11.6a10.179,10.179,0,0,0-9.5,6.429l-1.52,3.8H1.1A1.1,1.1,0,0,0,.037,75.59l.548,2.192a1.1,1.1,0,0,0,1.063.83H3.481A5.8,5.8,0,0,0,1.464,83v4.384a5.8,5.8,0,0,0,1.461,3.829v4.938a2.923,2.923,0,0,0,2.922,2.922H8.77a2.923,2.923,0,0,0,2.922-2.922V93.223H35.071v2.922a2.923,2.923,0,0,0,2.922,2.922h2.922a2.923,2.923,0,0,0,2.922-2.922V91.208A5.793,5.793,0,0,0,45.3,87.379V83a5.806,5.806,0,0,0-2.016-4.384h1.833a1.1,1.1,0,0,0,1.063-.83l.548-2.192A1.1,1.1,0,0,0,45.664,74.228ZM13.513,72.6a4.384,4.384,0,0,1,4.07-2.755h11.6a4.384,4.384,0,0,1,4.07,2.755l1.82,4.551H11.693ZM8.77,87.36a2.913,2.913,0,1,1,0-5.826c1.753,0,4.384,2.622,4.384,4.37S10.524,87.36,8.77,87.36Zm29.223,0c-1.753,0-4.384.291-4.384-1.457s2.63-4.37,4.384-4.37a2.913,2.913,0,1,1,0,5.826Z" transform="translate(-0.004 -64)"/>
</svg>
