<svg xmlns="http://www.w3.org/2000/svg" width="44.85" height="34.877" viewBox="0 0 44.85 34.877">
  <path id="svgexport-32_1_" data-name="svgexport-32 (1)" d="M21.815,41.1,7.46,52.921v12.76a1.246,1.246,0,0,0,1.246,1.246l8.725-.023a1.246,1.246,0,0,0,1.24-1.246V58.207a1.246,1.246,0,0,1,1.246-1.246H24.9a1.246,1.246,0,0,1,1.246,1.246v7.446a1.246,1.246,0,0,0,1.246,1.25l8.722.024a1.246,1.246,0,0,0,1.246-1.246V52.912L23.006,41.1a.949.949,0,0,0-1.191,0ZM44.49,49.134l-6.509-5.365V32.984a.934.934,0,0,0-.934-.934h-4.36a.934.934,0,0,0-.934.934v5.653L24.782,32.9a3.737,3.737,0,0,0-4.749,0L.324,49.134A.934.934,0,0,0,.2,50.45l1.985,2.414A.934.934,0,0,0,3.5,52.99L21.815,37.906a.949.949,0,0,1,1.191,0L41.321,52.99a.934.934,0,0,0,1.316-.125l1.985-2.414a.934.934,0,0,0-.132-1.318Z" transform="translate(0.015 -32.05)"/>
</svg>
